<svg id="visual" viewBox="0 0 900 600" width="900" height="600" xmlns="http://www.w3.org/2000/svg" xmlns:xlink="http://www.w3.org/1999/xlink" version="1.1"><path d="M0 129L16.7 128.3C33.3 127.7 66.7 126.3 100 120.2C133.3 114 166.7 103 200 109.8C233.3 116.7 266.7 141.3 300 155.7C333.3 170 366.7 174 400 167.2C433.3 160.3 466.7 142.7 500 136.8C533.3 131 566.7 137 600 137.8C633.3 138.7 666.7 134.3 700 129.8C733.3 125.3 766.7 120.7 800 119.7C833.3 118.7 866.7 121.3 883.3 122.7L900 124L900 0L883.3 0C866.7 0 833.3 0 800 0C766.7 0 733.3 0 700 0C666.7 0 633.3 0 600 0C566.7 0 533.3 0 500 0C466.7 0 433.3 0 400 0C366.7 0 333.3 0 300 0C266.7 0 233.3 0 200 0C166.7 0 133.3 0 100 0C66.7 0 33.3 0 16.7 0L0 0Z" fill="#F7770F" stroke-linecap="round" stroke-linejoin="miter"></path></svg>